<svg xmlns="http://www.w3.org/2000/svg" viewBox="0 0 1400 116" width="100%" height="auto">
  <defs>
    <filter id="glowCard" x="-10%" y="-10%" width="120%" height="120%">
      <feGaussianBlur stdDeviation="3" result="blur" />
      <feMerge>
        <feMergeNode in="blur" />
        <feMergeNode in="SourceGraphic" />
      </feMerge>
    </filter>
  </defs>
  
    <!-- Card 1: Repositories -->
    <g transform="translate(0.0, 0)">
      <!-- Card background -->
      <rect width="335.0" height="116" rx="12" fill="#080B10" stroke="#D4AF37" stroke-width="1" stroke-opacity="0.35" />
      
      <!-- Subtle top inner glow -->
      <rect x="1" y="1" width="333.0" height="2" fill="#D4AF37" fill-opacity="0.3" rx="1" />
      
      <!-- Icon Container -->
      <g transform="translate(30, 36)">
        <path d="M22 19a2 2 0 0 1-2 2H4a2 2 0 0 1-2-2V5a2 2 0 0 1 2-2h5l2 3h9a2 2 0 0 1 2 2z" fill="none" stroke="#D4AF37" stroke-width="2.2" stroke-linecap="round" stroke-linejoin="round" />
      </g>
      
      <!-- Metric Number -->
      <text x="82" y="52" fill="#F0F6FC" font-family="-apple-system,BlinkMacSystemFont,'Segoe UI',Roboto,sans-serif" font-size="28" font-weight="800" letter-spacing="1">
        10
      </text>
      
      <!-- Metric Label -->
      <text x="82" y="76" fill="#8B949E" font-family="-apple-system,BlinkMacSystemFont,'Segoe UI',Roboto,sans-serif" font-size="13.5" font-weight="600" letter-spacing="0.5">
        Repositories
      </text>
    </g>
    <!-- Card 2: Followers -->
    <g transform="translate(355.0, 0)">
      <!-- Card background -->
      <rect width="335.0" height="116" rx="12" fill="#080B10" stroke="#D4AF37" stroke-width="1" stroke-opacity="0.35" />
      
      <!-- Subtle top inner glow -->
      <rect x="1" y="1" width="333.0" height="2" fill="#D4AF37" fill-opacity="0.3" rx="1" />
      
      <!-- Icon Container -->
      <g transform="translate(30, 36)">
        <path d="M17 21v-2a4 4 0 0 0-4-4H5a4 4 0 0 0-4 4v2 M9 7a4 4 0 1 0 0-8 4 4 0 0 0 0 8z M23 21v-2a4 4 0 0 0-3-3.87 M16 3.13a4 4 0 0 1 0 7.75" fill="none" stroke="#D4AF37" stroke-width="2.2" stroke-linecap="round" stroke-linejoin="round" />
      </g>
      
      <!-- Metric Number -->
      <text x="82" y="52" fill="#F0F6FC" font-family="-apple-system,BlinkMacSystemFont,'Segoe UI',Roboto,sans-serif" font-size="28" font-weight="800" letter-spacing="1">
        2
      </text>
      
      <!-- Metric Label -->
      <text x="82" y="76" fill="#8B949E" font-family="-apple-system,BlinkMacSystemFont,'Segoe UI',Roboto,sans-serif" font-size="13.5" font-weight="600" letter-spacing="0.5">
        Followers
      </text>
    </g>
    <!-- Card 3: Following -->
    <g transform="translate(710.0, 0)">
      <!-- Card background -->
      <rect width="335.0" height="116" rx="12" fill="#080B10" stroke="#D4AF37" stroke-width="1" stroke-opacity="0.35" />
      
      <!-- Subtle top inner glow -->
      <rect x="1" y="1" width="333.0" height="2" fill="#D4AF37" fill-opacity="0.3" rx="1" />
      
      <!-- Icon Container -->
      <g transform="translate(30, 36)">
        <path d="M16 21v-2a4 4 0 0 0-4-4H5a4 4 0 0 0-4 4v2 M8.5 7a4 4 0 1 0 0-8 4 4 0 0 0 0 8z M17 11l2 2 4-4" fill="none" stroke="#D4AF37" stroke-width="2.2" stroke-linecap="round" stroke-linejoin="round" />
      </g>
      
      <!-- Metric Number -->
      <text x="82" y="52" fill="#F0F6FC" font-family="-apple-system,BlinkMacSystemFont,'Segoe UI',Roboto,sans-serif" font-size="28" font-weight="800" letter-spacing="1">
        2
      </text>
      
      <!-- Metric Label -->
      <text x="82" y="76" fill="#8B949E" font-family="-apple-system,BlinkMacSystemFont,'Segoe UI',Roboto,sans-serif" font-size="13.5" font-weight="600" letter-spacing="0.5">
        Following
      </text>
    </g>
    <!-- Card 4: Total Contributions -->
    <g transform="translate(1065.0, 0)">
      <!-- Card background -->
      <rect width="335.0" height="116" rx="12" fill="#080B10" stroke="#D4AF37" stroke-width="1" stroke-opacity="0.35" />
      
      <!-- Subtle top inner glow -->
      <rect x="1" y="1" width="333.0" height="2" fill="#D4AF37" fill-opacity="0.3" rx="1" />
      
      <!-- Icon Container -->
      <g transform="translate(30, 36)">
        <path d="M18 20V10 M12 20V4 M6 20v-6" fill="none" stroke="#D4AF37" stroke-width="2.2" stroke-linecap="round" stroke-linejoin="round" />
      </g>
      
      <!-- Metric Number -->
      <text x="82" y="52" fill="#F0F6FC" font-family="-apple-system,BlinkMacSystemFont,'Segoe UI',Roboto,sans-serif" font-size="28" font-weight="800" letter-spacing="1">
        123
      </text>
      
      <!-- Metric Label -->
      <text x="82" y="76" fill="#8B949E" font-family="-apple-system,BlinkMacSystemFont,'Segoe UI',Roboto,sans-serif" font-size="13.5" font-weight="600" letter-spacing="0.5">
        Total Contributions
      </text>
    </g>
</svg>