<svg xmlns="http://www.w3.org/2000/svg" viewBox="0 0 210 148" width="100%" height="auto">
  <defs>
    <linearGradient id="cardGrad2" x1="0%" y1="0%" x2="100%" y2="100%">
      <stop offset="0%" stop-color="#D4AF37" stop-opacity="0.4" />
      <stop offset="100%" stop-color="#D4AF37" stop-opacity="0.1" />
    </linearGradient>
  </defs>

  <rect width="210" height="148" rx="10" fill="#080B10" stroke="url(#cardGrad2)" stroke-width="1.1" />

  <!-- Title + Public Badge -->
  <g transform="translate(16, 28)">
    <text x="0" y="0" fill="#58A6FF" font-family="-apple-system,BlinkMacSystemFont,'Segoe UI',Roboto,sans-serif" font-size="13" font-weight="700">
      xrvizion
    </text>
    <rect x="136" y="-12" width="42" height="16" rx="8" fill="#121720" stroke="#30363D" stroke-width="0.8" />
    <text x="157" y="-1" text-anchor="middle" fill="#8B949E" font-family="-apple-system,BlinkMacSystemFont,'Segoe UI',sans-serif" font-size="9" font-weight="600">
      Public
    </text>
  </g>

  <!-- Description -->
  <g transform="translate(16, 48)">
    <text x="0" y="0" fill="#8B949E" font-family="-apple-system,BlinkMacSystemFont,'Segoe UI',Roboto,sans-serif" font-size="10" font-weight="400">
      Experimental projects and
    </text>
    <text x="0" y="14" fill="#8B949E" font-family="-apple-system,BlinkMacSystemFont,'Segoe UI',Roboto,sans-serif" font-size="10" font-weight="400">
      innovative ideas in spatial computing.
    </text>
  </g>

  <!-- Language & Topics -->
  <g>
    
      <rect x="16" y="86" width="36" height="16" rx="8" fill="#161B22" stroke="#30363D" stroke-width="0.8" />
      <text x="34.0" y="97.5" text-anchor="middle" fill="#8B949E" font-family="-apple-system,BlinkMacSystemFont,'Segoe UI',Roboto,sans-serif" font-size="9" font-weight="500">Misc</text>
    
  </g>

  <!-- Stars & Forks -->
  <g transform="translate(16, 126)">
    <path d="M12 2l3.09 6.26L22 9.27l-5 4.87 1.18 6.88L12 17.77l-6.18 3.25L7 14.14 2 9.27l6.91-1.01L12 2z" fill="#D4AF37" stroke="#D4AF37" stroke-width="1" transform="scale(0.5) translate(0, -18)" />
    <text x="16" y="-2" fill="#8B949E" font-family="-apple-system,BlinkMacSystemFont,'Segoe UI',Roboto,sans-serif" font-size="10" font-weight="500">
      0
    </text>

    <g transform="translate(42, -13) scale(0.5)">
      <path d="M18 9v2a2 2 0 0 1-2 2H8a2 2 0 0 1-2-2V9 M12 12v3" fill="none" stroke="#8B949E" stroke-width="2" stroke-linecap="round" />
      <circle cx="12" cy="18" r="3" fill="none" stroke="#8B949E" stroke-width="2" />
      <circle cx="6" cy="6" r="3" fill="none" stroke="#8B949E" stroke-width="2" />
      <circle cx="18" cy="6" r="3" fill="none" stroke="#8B949E" stroke-width="2" />
    </g>
    <text x="58" y="-2" fill="#8B949E" font-family="-apple-system,BlinkMacSystemFont,'Segoe UI',Roboto,sans-serif" font-size="10" font-weight="500">
      0
    </text>
  </g>
</svg>